<svg width="43" height="105" viewBox="0 0 43 105" fill="none" xmlns="http://www.w3.org/2000/svg">
<path d="M40.7291 10.9112V25.5M21 82.9969L40.7291 68.4081V55.5357M21 82.9969L2.3092 68.4081V55.5357M21 82.9969V68.4081M2.3092 10.9112V25.5M21 0.613281V36.6561M21 104.451V68.4081M2.3092 55.5357L21 68.4081M2.3092 55.5357V40.0887M21 68.4081L40.7291 55.5357M21 68.4081V52.103M40.7291 55.5357V40.0887M21 52.103L40.7291 40.0887M21 52.103L2.3092 40.0887M21 52.103V36.6561M40.7291 40.0887V25.5M2.3092 40.0887V25.5M21 36.6561L40.7291 25.5M21 36.6561L2.3092 25.5" stroke="#C49A6B" stroke-width="3.11513"/>
</svg>
