<svg width="22" height="23" viewBox="0 0 22 23" fill="none" xmlns="http://www.w3.org/2000/svg">
<circle cx="11" cy="11.5373" r="10.3838" stroke="#F8F8F8" stroke-width="1.03838" stroke-linejoin="round"/>
<path d="M17.9563 12.0991C17.9631 12.1802 17.9428 12.2613 17.8955 12.3424C17.8481 12.4236 17.8042 12.4945 17.7636 12.5554C17.7433 12.5757 17.7028 12.6061 17.6419 12.6467C17.5879 12.6805 17.527 12.7143 17.4594 12.7481C17.3986 12.7819 17.3377 12.819 17.2769 12.8596C17.2228 12.8934 17.189 12.9204 17.1755 12.9407C17.1417 12.9948 17.1011 13.0658 17.0538 13.1537C17.0132 13.2416 16.9761 13.3125 16.9423 13.3666C16.8476 13.4883 16.753 13.583 16.6583 13.6506C16.5704 13.7182 16.4758 13.779 16.3744 13.8331C16.2798 13.8804 16.1783 13.9277 16.0702 13.975C15.962 14.0224 15.8437 14.09 15.7153 14.1779L15.6341 14.4314C15.4922 14.4178 15.3908 14.4246 15.3299 14.4516C15.2759 14.4719 15.2353 14.5057 15.2083 14.553C15.188 14.6004 15.1677 14.6545 15.1474 14.7153C15.1339 14.7761 15.1001 14.837 15.046 14.8978C15.019 14.9316 14.9716 14.9654 14.904 14.9992C14.8432 15.033 14.7959 15.0533 14.7621 15.0601C14.708 15.0601 14.6607 15.0567 14.6201 15.0499C14.5863 15.0432 14.5559 15.0398 14.5288 15.0398C14.5086 15.0398 14.4917 15.0499 14.4781 15.0702C14.4646 15.0837 14.4579 15.1175 14.4579 15.1716H14.4376C14.3632 15.1716 14.2956 15.1885 14.2348 15.2223C14.1739 15.2629 14.1131 15.3001 14.0522 15.3339C13.9914 15.3677 13.9306 15.3879 13.8697 15.3947C13.8089 15.4082 13.7413 15.3913 13.6669 15.344H13.6568C13.6568 15.1818 13.6263 15.0634 13.5655 14.9891C13.5114 14.908 13.4472 14.837 13.3728 14.7761C13.2985 14.7085 13.2275 14.6342 13.1599 14.553C13.099 14.4719 13.0619 14.3502 13.0483 14.188C13.0348 14.0325 13.0517 13.8736 13.099 13.7114C13.1531 13.5492 13.1802 13.3903 13.1802 13.2348C13.1802 13.1402 13.1633 13.059 13.1295 12.9914C13.0957 12.9238 13.0788 12.8528 13.0788 12.7785C13.0788 12.7109 13.0957 12.6534 13.1295 12.6061C13.17 12.5588 13.2072 12.5148 13.241 12.4743C13.2816 12.4337 13.3052 12.3864 13.312 12.3323C13.3255 12.2782 13.3052 12.2106 13.2512 12.1295V12.1194C13.2512 12.0585 13.2647 11.9841 13.2917 11.8963C13.3188 11.8016 13.339 11.7239 13.3526 11.663C13.3931 11.494 13.4303 11.3284 13.4641 11.1662C13.5047 10.9972 13.5385 10.8315 13.5655 10.6693C13.6061 10.4191 13.6466 10.1758 13.6872 9.93917C13.7278 9.6958 13.7886 9.45581 13.8697 9.2192L13.8799 9.20906L13.8089 9.10766H13.8393C13.9339 9.08062 13.9948 9.02315 14.0218 8.93527C14.0556 8.84739 14.0759 8.75274 14.0827 8.65134C14.0894 8.54994 14.0928 8.45529 14.0928 8.36741C14.0996 8.27277 14.13 8.20516 14.1841 8.1646C14.1503 8.1308 14.1165 8.097 14.0827 8.0632C14.0556 8.02264 14.0252 7.98545 13.9914 7.95165C13.9846 7.95841 13.9813 7.96855 13.9813 7.98207C13.9204 8.17812 13.8258 8.34713 13.6973 8.48909C13.5756 8.6243 13.4472 8.7595 13.312 8.89471C13.1836 9.02315 13.0652 9.16512 12.9571 9.32061C12.8489 9.46933 12.7779 9.65862 12.7441 9.88847C12.6292 10.0845 12.5244 10.2873 12.4298 10.4969C12.3419 10.7065 12.2473 10.916 12.1459 11.1256C12.0444 11.3352 11.9329 11.538 11.8112 11.734C11.6963 11.9233 11.5577 12.0957 11.3955 12.2512C11.3955 12.2647 11.3955 12.2816 11.3955 12.3019C11.4022 12.3222 11.4056 12.3391 11.4056 12.3526C11.4056 12.4134 11.3921 12.4641 11.365 12.5047C11.338 12.5453 11.3076 12.5858 11.2738 12.6264C11.24 12.6602 11.2028 12.6974 11.1622 12.7379C11.1217 12.7717 11.0879 12.8089 11.0608 12.8495C11.0608 12.9576 11.0338 13.059 10.9797 13.1537C10.9256 13.2416 10.8648 13.3261 10.7972 13.4072C10.7363 13.4883 10.6789 13.5694 10.6248 13.6506C10.5707 13.7317 10.5437 13.8128 10.5437 13.8939C10.5437 14.0629 10.5132 14.1914 10.4524 14.2793C10.3916 14.3604 10.3172 14.428 10.2293 14.4821C10.1482 14.5294 10.0603 14.5801 9.96567 14.6342C9.87778 14.6815 9.80342 14.7525 9.74258 14.8471V14.8573C9.7223 14.8505 9.69864 14.8539 9.6716 14.8674C9.64455 14.8809 9.61413 14.8775 9.58033 14.8573C9.54653 14.8437 9.52287 14.8099 9.50935 14.7559C9.50259 14.695 9.49583 14.6308 9.48907 14.5632C9.48231 14.4956 9.47555 14.4347 9.46879 14.3807C9.46203 14.3266 9.44851 14.2928 9.42823 14.2793C9.45527 14.259 9.49245 14.1914 9.53977 14.0765C9.58709 13.9615 9.63103 13.8331 9.6716 13.6911C9.71892 13.5492 9.75948 13.4139 9.79328 13.2855C9.83384 13.1571 9.86088 13.0726 9.8744 13.032C9.90144 12.9441 9.92511 12.8562 9.94539 12.7683C9.97243 12.6805 10.0028 12.5926 10.0367 12.5047C10.0502 12.4709 10.0637 12.4337 10.0772 12.3931C10.0975 12.3458 10.111 12.3053 10.1178 12.2715C10.1245 12.2174 10.1279 12.1599 10.1279 12.0991C10.1347 12.0382 10.1414 11.9774 10.1482 11.9165L10.1685 11.9064C10.2226 11.9064 10.2597 11.8827 10.28 11.8354C10.3071 11.7813 10.324 11.7239 10.3307 11.663C10.3375 11.5954 10.3375 11.5278 10.3307 11.4602C10.3307 11.3926 10.3341 11.3419 10.3409 11.3081C10.3949 10.9836 10.4659 10.649 10.5538 10.3042C10.6417 9.95269 10.6856 9.61468 10.6856 9.29019V9.13808C10.6924 9.02992 10.7025 8.91837 10.7161 8.80345C10.7296 8.68852 10.733 8.5736 10.7262 8.45867C10.7262 8.33699 10.7093 8.22206 10.6755 8.1139C10.6485 8.00574 10.6011 7.90433 10.5335 7.80969V7.79955C10.3172 7.79955 10.1178 7.86715 9.93525 8.00236C9.75272 8.1308 9.58371 8.29305 9.42823 8.48909C9.2795 8.67838 9.14768 8.88119 9.03275 9.09752C8.91783 9.30709 8.82318 9.49299 8.74882 9.65524L8.72854 9.67552L8.6677 9.58426L8.65756 9.5944C8.54263 9.67552 8.46151 9.7634 8.41419 9.85805C8.37363 9.94593 8.33306 10.0541 8.2925 10.1825C8.25194 10.3177 8.20124 10.4462 8.1404 10.5679C8.08631 10.6896 7.99167 10.7774 7.85647 10.8315L7.84633 10.8417C7.84633 10.9972 7.82266 11.1155 7.77534 11.1966C7.72802 11.2709 7.67394 11.3385 7.6131 11.3994C7.55901 11.4602 7.50831 11.5312 7.46099 11.6123C7.41367 11.6867 7.39001 11.805 7.39001 11.9672L7.37987 11.9774C7.24466 12.0788 7.15002 12.187 7.09594 12.3019C7.04185 12.4168 6.98777 12.5486 6.93369 12.6974C6.88637 12.8123 6.84243 12.9238 6.80186 13.032C6.7613 13.1334 6.70046 13.228 6.61934 13.3159L6.62948 13.3362C6.67004 13.3565 6.68356 13.397 6.67004 13.4579C6.66328 13.512 6.66328 13.5559 6.67004 13.5897C6.60244 13.7046 6.53483 13.8128 6.46723 13.9142C6.39963 14.0088 6.33879 14.1069 6.2847 14.2083C6.23738 14.3029 6.19682 14.4043 6.16302 14.5125C6.12922 14.6207 6.11232 14.7457 6.11232 14.8877V14.8978H6.09204C5.97711 14.9113 5.89599 14.9553 5.84867 15.0296C5.80135 15.0973 5.76416 15.1784 5.73712 15.273C5.71684 15.3677 5.70332 15.4623 5.69656 15.5569C5.6898 15.6516 5.66952 15.726 5.63572 15.78C5.60868 15.8341 5.56136 15.8578 5.49375 15.851C5.42615 15.851 5.32475 15.7969 5.18954 15.6888L4.91575 15.486C4.99011 15.3237 5.0611 15.1615 5.1287 14.9992C5.18954 14.8302 5.24362 14.6578 5.29095 14.4821C5.33827 14.3063 5.38897 14.1339 5.44305 13.9649C5.49713 13.7959 5.57826 13.6337 5.68642 13.4782V13.468C5.68642 13.441 5.69318 13.397 5.7067 13.3362C5.72698 13.2686 5.74726 13.1976 5.76754 13.1233C5.78783 13.0489 5.80811 12.9813 5.82839 12.9204C5.85543 12.8528 5.87571 12.8021 5.88923 12.7683C5.94331 12.6534 5.99063 12.5419 6.03119 12.4337C6.07852 12.3255 6.10218 12.2039 6.10218 12.0687C6.16302 11.974 6.21034 11.8726 6.24414 11.7644C6.27794 11.6495 6.30837 11.5346 6.33541 11.4197C6.36921 11.3047 6.40639 11.1932 6.44695 11.085C6.49427 10.9769 6.5585 10.8788 6.63962 10.791C6.63962 10.7842 6.64976 10.7403 6.67004 10.6591C6.69708 10.578 6.72412 10.4901 6.75116 10.3955C6.7782 10.3008 6.80186 10.2096 6.82215 10.1217C6.84919 10.0338 6.86609 9.97973 6.87285 9.95945C6.94721 9.71608 7.00805 9.48623 7.05537 9.2699C7.10946 9.04682 7.1365 8.80683 7.1365 8.54994C7.1365 8.49585 7.13312 8.44177 7.12636 8.38769C7.1196 8.32685 7.1196 8.26939 7.12636 8.2153C7.24128 8.03954 7.33931 7.84687 7.42043 7.6373C7.50155 7.42773 7.55901 7.22154 7.59282 7.01874V7.0086C7.57253 6.96804 7.54211 6.91395 7.50155 6.84635C7.46099 6.77875 7.42381 6.73481 7.39001 6.71453C7.31564 6.68072 7.2379 6.68072 7.15678 6.71453C7.07566 6.74157 6.99115 6.76861 6.90327 6.79565C6.81538 6.82269 6.73088 6.82945 6.64976 6.81593C6.56864 6.80241 6.49427 6.73481 6.42667 6.61312V6.59284C6.33879 6.62664 6.26104 6.6672 6.19344 6.71453C6.1326 6.75509 6.04472 6.75509 5.92979 6.71453L5.91965 6.70438C5.91965 6.63002 5.89937 6.5658 5.85881 6.51172C5.81825 6.45088 5.78106 6.39003 5.74726 6.32919C5.71346 6.36975 5.6729 6.39003 5.62558 6.39003C5.57826 6.39003 5.52755 6.38327 5.47347 6.36975C5.41939 6.35623 5.36869 6.33933 5.32137 6.31905C5.26728 6.29201 5.22334 6.27173 5.18954 6.25821L5.16926 6.24807C5.14898 6.16018 5.1118 6.09596 5.05772 6.0554C5.00363 6.00808 4.94617 5.96752 4.88533 5.93371C4.82449 5.89991 4.77379 5.86273 4.73322 5.82217C4.6859 5.77485 4.66224 5.70725 4.66224 5.61936C4.66224 5.51796 4.68928 5.43008 4.74336 5.35571C4.79069 5.27459 4.85153 5.21713 4.92589 5.18333C5.00025 5.14952 5.08138 5.13938 5.16926 5.1529C5.25714 5.16643 5.33827 5.21037 5.41263 5.28473V5.29487C5.44643 5.32867 5.49713 5.36923 5.56474 5.41655C5.63234 5.46388 5.69994 5.51458 5.76754 5.56866C5.84191 5.61598 5.91289 5.65654 5.98049 5.69035C6.05486 5.72415 6.1157 5.74105 6.16302 5.74105C6.19006 5.72077 6.21372 5.71739 6.234 5.73091C6.26104 5.73767 6.28132 5.75119 6.29484 5.77147C6.31513 5.79175 6.33541 5.81541 6.35569 5.84245C6.37597 5.86273 6.39625 5.87287 6.41653 5.87287C6.46385 5.85935 6.49427 5.82893 6.50779 5.78161L6.51793 5.79175C6.57878 5.81203 6.643 5.80527 6.7106 5.77147C6.78496 5.73091 6.85933 5.69373 6.93369 5.65992C7.01481 5.61936 7.09594 5.59908 7.17706 5.59908C7.26494 5.59232 7.34945 5.63288 7.43057 5.72077C7.44409 5.70049 7.47113 5.68359 7.51169 5.67006C7.55225 5.65654 7.58605 5.64978 7.6131 5.64978C7.70098 5.64978 7.77872 5.69035 7.84633 5.77147C8.00181 5.96752 8.09645 6.18722 8.13026 6.43059C8.16406 6.67396 8.18096 6.91395 8.18096 7.15056V7.44463V7.45477C8.12688 7.55618 8.07955 7.65758 8.03899 7.75899C8.00519 7.86039 7.98829 7.96855 7.98829 8.08348C7.98829 8.10376 7.98829 8.1308 7.98829 8.1646C7.99505 8.1984 8.00181 8.23558 8.00857 8.27615C8.01533 8.30995 8.01871 8.34375 8.01871 8.37755C8.02547 8.40459 8.02885 8.42149 8.02885 8.42825C8.00857 8.54994 7.97815 8.67162 7.93759 8.79331C7.89703 8.91499 7.85647 9.0333 7.8159 9.14822C7.74154 9.35779 7.67732 9.57074 7.62324 9.78706C7.56915 9.99663 7.53535 10.213 7.52183 10.436C7.65704 10.2332 7.72464 10 7.72464 9.73636L7.73478 9.72622C7.90379 9.59102 8.04237 9.44567 8.15054 9.29019C8.2587 9.12794 8.36349 8.95555 8.46489 8.77303C8.57981 8.57022 8.70488 8.37079 8.84008 8.17474C8.98205 7.97869 9.16796 7.83673 9.39781 7.74885C9.47217 7.67448 9.53977 7.60012 9.60061 7.52576C9.66822 7.45139 9.74934 7.39731 9.84398 7.36351L9.85412 7.35337L9.91497 7.45477C9.94201 7.43449 9.96229 7.41421 9.97581 7.39393C9.99609 7.37365 10.0164 7.35337 10.0367 7.33309C10.1043 7.26549 10.1448 7.22154 10.1583 7.20126C10.1719 7.17422 10.1786 7.11338 10.1786 7.01874C10.28 6.93761 10.3713 6.89367 10.4524 6.88691C10.5403 6.88015 10.618 6.89705 10.6856 6.93761C10.76 6.97142 10.8344 7.01874 10.9087 7.07958C10.9831 7.14042 11.0608 7.1945 11.142 7.24183V7.25197C11.196 7.59674 11.2434 7.93813 11.2839 8.27615C11.3312 8.61416 11.3549 8.95893 11.3549 9.31047C11.3549 9.49299 11.3481 9.65862 11.3346 9.80735C11.3279 9.94931 11.311 10.0913 11.2839 10.2332C11.2636 10.3684 11.2332 10.507 11.1927 10.649C11.1589 10.791 11.1183 10.9464 11.071 11.1155V11.1256C11.1656 11.227 11.2501 11.2608 11.3245 11.227C11.4056 11.1932 11.48 11.1324 11.5476 11.0445C11.6152 10.9498 11.676 10.8518 11.7301 10.7504C11.7909 10.6422 11.8484 10.5611 11.9025 10.507H11.9126C11.9059 10.4394 11.9261 10.3583 11.9735 10.2637C12.0208 10.1623 12.0749 10.0609 12.1357 9.95945C12.1966 9.85805 12.2506 9.7634 12.298 9.67552C12.3453 9.58088 12.3656 9.51327 12.3588 9.47271C12.494 9.27666 12.6157 9.084 12.7239 8.89471C12.8388 8.69866 12.9436 8.49585 13.0382 8.28629C13.072 8.31333 13.099 8.31333 13.1193 8.28629C13.1396 8.25925 13.1599 8.23558 13.1802 8.2153H13.1903C13.2174 8.05306 13.2714 7.92123 13.3526 7.81983C13.4404 7.71166 13.5351 7.61702 13.6365 7.5359C13.7447 7.44801 13.8562 7.36351 13.9711 7.28239C14.086 7.20126 14.1908 7.10662 14.2855 6.99846C14.4342 6.99846 14.566 7.02888 14.681 7.08972C14.8026 7.1438 14.8702 7.25873 14.8838 7.43449C14.85 7.54266 14.8297 7.6542 14.8229 7.76913C14.8229 7.87729 14.8195 7.98883 14.8128 8.10376C14.8128 8.21868 14.806 8.33361 14.7925 8.44853C14.779 8.5567 14.7486 8.66148 14.7012 8.76288C14.7012 8.77641 14.6911 8.82035 14.6708 8.89471C14.6505 8.96907 14.6269 9.05358 14.5998 9.14822C14.5795 9.2361 14.5559 9.32061 14.5288 9.40173C14.5018 9.48285 14.4849 9.53355 14.4781 9.55384C14.3835 9.84453 14.3091 10.1217 14.2551 10.3853C14.201 10.6422 14.1739 10.9295 14.1739 11.2473C14.1469 11.2743 14.1198 11.3014 14.0928 11.3284C14.0725 11.3554 14.0489 11.3791 14.0218 11.3994L14.032 11.4095C14.059 11.4771 14.0725 11.538 14.0725 11.5921C14.0725 11.6664 14.0522 11.7475 14.0117 11.8354C13.9779 11.9233 13.9441 12.0112 13.9103 12.0991C13.8832 12.1802 13.8697 12.2647 13.8697 12.3526C13.8697 12.4337 13.9103 12.5081 13.9914 12.5757C13.9914 12.6838 13.9745 12.8021 13.9407 12.9306C13.9069 13.0523 13.8765 13.1773 13.8494 13.3058C13.8292 13.4275 13.819 13.5492 13.819 13.6708C13.819 13.7925 13.8528 13.9041 13.9204 14.0055L13.9306 14.0156C14.0387 14.0156 14.1198 14.0055 14.1739 13.9852C14.228 13.9649 14.272 13.9514 14.3058 13.9446C14.3463 13.9379 14.3903 13.9446 14.4376 13.9649C14.4849 13.9784 14.5593 14.0224 14.6607 14.0967L15.2387 13.7013C15.3198 13.6404 15.3908 13.5762 15.4516 13.5086C15.5192 13.441 15.5868 13.3801 15.6544 13.3261C15.722 13.272 15.7964 13.2314 15.8775 13.2044C15.9586 13.1773 16.0567 13.174 16.1716 13.1942L16.1817 13.174C16.2764 13.0388 16.3947 12.9238 16.5366 12.8292C16.6854 12.7345 16.8409 12.65 17.0031 12.5757C17.1653 12.4945 17.331 12.4202 17.5 12.3526C17.669 12.2782 17.8211 12.1937 17.9563 12.0991Z" fill="#F8F8F8"/>
</svg>
