<svg width="143" height="81" viewBox="0 0 143 81" fill="none" xmlns="http://www.w3.org/2000/svg">
<line x1="0.390411" y1="79.4357" x2="142.648" y2="79.4357" stroke="#C49A6B" stroke-width="3.11513"/>
<circle cx="68.404" cy="71.1288" r="2.59594" fill="#C49A6B"/>
<circle cx="73.5959" cy="54.5148" r="2.59594" fill="#C49A6B"/>
<circle cx="91.2483" cy="65.9369" r="2.59594" fill="#C49A6B"/>
<circle cx="63.2122" cy="60.745" r="2.59594" fill="#C49A6B"/>
<circle cx="78.7878" cy="45.1693" r="2.59594" fill="#C49A6B"/>
<circle cx="68.404" cy="26.4785" r="2.59594" fill="#C49A6B"/>
<circle cx="77.7494" cy="21.2867" r="2.59594" fill="#C49A6B"/>
<circle cx="70.4808" cy="16.0948" r="2.59594" fill="#C49A6B"/>
<circle cx="76.7111" cy="2.59594" r="2.59594" fill="#C49A6B"/>
<circle cx="83.9797" cy="57.6299" r="2.59594" fill="#C49A6B"/>
<circle cx="51.79" cy="69.052" r="2.59594" fill="#C49A6B"/>
<circle cx="101.632" cy="71.1288" r="2.59594" fill="#C49A6B"/>
<path d="M70.226 38.9565C73.1318 35.472 78.4846 35.472 81.3904 38.9565L114.715 78.9166H118.771L83.7828 36.9614C79.6316 31.9836 71.9848 31.9836 67.8336 36.9614L32.845 78.9166H36.9012L70.226 38.9565Z" fill="#C49A6B"/>
</svg>
