<svg width="84" height="88" viewBox="0 0 84 88" fill="none" xmlns="http://www.w3.org/2000/svg">
<path d="M62.6073 2.31586L63.6625 1.1702L62.6354 0.224169L61.5832 1.14227L62.6073 2.31586ZM43.1218 26.8438L41.5643 26.8543L41.5645 26.8819L41.5656 26.9095L43.1218 26.8438ZM82.0927 26.8438L83.6488 26.9107L83.6506 26.8687L83.6502 26.8267L82.0927 26.8438ZM48.9675 40.6033L47.8231 41.66L47.9108 41.7549L48.013 41.8341L48.9675 40.6033ZM62.6073 45.3892L62.5238 46.9446L62.5889 46.9481L62.654 46.9461L62.6073 45.3892ZM76.2471 40.6033L77.1927 41.841L77.2479 41.7988L77.2991 41.7519L76.2471 40.6033ZM62.6073 2.31586C61.5832 1.14227 61.5831 1.14232 61.583 1.14242C61.5829 1.14251 61.5828 1.14265 61.5826 1.14282C61.5822 1.14317 61.5816 1.14369 61.5808 1.14436C61.5792 1.14571 61.577 1.14771 61.5739 1.15035C61.5679 1.15563 61.5589 1.16347 61.5471 1.1738C61.5234 1.19445 61.4884 1.22506 61.4427 1.26506C61.3512 1.34506 61.2169 1.46262 61.0451 1.61321C60.7016 1.91439 60.2082 2.34775 59.6081 2.87704C58.4082 3.93542 56.7805 5.3784 55.0707 6.9157C51.6945 9.95136 47.8703 13.4678 46.4925 15.054L48.8443 17.0968C50.0646 15.6919 53.7098 12.3285 57.1535 9.23216C58.8537 7.70347 60.4736 6.26741 61.6687 5.21326C62.2662 4.68628 62.7572 4.255 63.0987 3.95559C63.2695 3.8059 63.4028 3.68919 63.4934 3.60998C63.5387 3.57038 63.5732 3.54016 63.5965 3.51988C63.6081 3.50974 63.6168 3.50209 63.6227 3.49699C63.6256 3.49445 63.6278 3.49254 63.6292 3.49128C63.6299 3.49065 63.6305 3.49018 63.6308 3.48987C63.631 3.48972 63.6311 3.48961 63.6312 3.48954C63.6313 3.48947 63.6313 3.48945 62.6073 2.31586ZM46.4925 15.054C43.7594 18.2007 41.5326 22.1824 41.5643 26.8543L44.6793 26.8332C44.6547 23.2055 46.3813 19.9325 48.8443 17.0968L46.4925 15.054ZM83.6502 26.8267C83.5973 21.9962 80.686 18.063 78.0725 15.054L75.7206 17.0968C78.3033 20.0702 80.4957 23.2489 80.5352 26.8608L83.6502 26.8267ZM78.0725 15.054C76.7105 13.4859 73.069 9.98329 69.8469 6.94136C68.2192 5.40471 66.6735 3.96225 65.5349 2.90418C64.9655 2.37505 64.4977 1.94185 64.1721 1.6408C64.0093 1.49027 63.8821 1.37277 63.7954 1.29283C63.7521 1.25286 63.719 1.22228 63.6966 1.20165C63.6854 1.19134 63.6769 1.18352 63.6712 1.17825C63.6683 1.17562 63.6662 1.17362 63.6647 1.17228C63.664 1.17161 63.6634 1.1711 63.6631 1.17075C63.6629 1.17058 63.6627 1.17044 63.6626 1.17035C63.6625 1.17026 63.6625 1.1702 62.6073 2.31586C61.552 3.46151 61.5521 3.46154 61.5521 3.46161C61.5522 3.46168 61.5523 3.46179 61.5525 3.46195C61.5528 3.46225 61.5534 3.46273 61.554 3.46336C61.5554 3.46463 61.5575 3.46654 61.5603 3.4691C61.5658 3.47421 61.5741 3.48187 61.5851 3.49202C61.6072 3.51233 61.64 3.54258 61.6829 3.58221C61.7688 3.66147 61.8953 3.77824 62.0572 3.928C62.3812 4.22753 62.8471 4.65897 63.4143 5.18612C64.549 6.24058 66.0885 7.67716 67.7084 9.2065C70.9814 12.2965 74.4846 15.6737 75.7206 17.0968L78.0725 15.054ZM41.5656 26.9095C41.6964 30.0056 42.0834 32.4725 43.0695 34.8116C44.0536 37.1459 45.5854 39.2366 47.8231 41.66L50.1118 39.5466C47.9893 37.2481 46.7252 35.4639 45.94 33.6014C45.1568 31.7437 44.8011 29.6917 44.678 26.778L41.5656 26.9095ZM48.013 41.8341C50.3338 43.6339 52.3596 44.8524 54.6561 45.6475C56.939 46.4378 59.3955 46.7767 62.5238 46.9446L62.6907 43.8339C59.681 43.6724 57.5578 43.3555 55.6752 42.7038C53.8064 42.0568 52.0813 41.047 49.9219 39.3725L48.013 41.8341ZM62.654 46.9461C65.7608 46.8527 68.1962 46.5269 70.4855 45.7187C72.7769 44.9098 74.8207 43.6533 77.1927 41.841L75.3014 39.3657C73.0596 41.0786 71.3102 42.124 69.4485 42.7813C67.5846 43.4393 65.507 43.7438 62.5605 43.8324L62.654 46.9461ZM77.2991 41.7519C79.5411 39.6985 81.1 37.7807 82.106 35.4026C83.1014 33.0496 83.4998 30.3749 83.6488 26.9107L80.5366 26.7768C80.3933 30.107 80.0172 32.3445 79.237 34.1889C78.4673 36.0083 77.2495 37.5731 75.1951 39.4547L77.2991 41.7519Z" fill="#C49A6B"/>
<path fill-rule="evenodd" clip-rule="evenodd" d="M44.1049 21.7453C43.9776 21.6147 43.8507 21.4845 43.7241 21.3547C41.1565 18.7229 38.7178 16.2521 36.9212 14.4395C36.0228 13.5331 35.2847 12.791 34.7712 12.2754C34.5144 12.0176 34.3137 11.8165 34.1771 11.6796L34.0214 11.5237L33.9814 11.4837L33.9713 11.4736L33.9687 11.471L33.968 11.4703C33.9679 11.4702 33.9678 11.4701 32.8664 12.5714L33.9678 11.4701L32.8958 10.3981L31.7952 11.4407L32.8664 12.5714C31.7952 11.4407 31.7951 11.4408 31.795 11.441L31.7943 11.4416L31.7915 11.4442L31.7808 11.4544L31.7386 11.4944L31.5741 11.6505C31.43 11.7874 31.2182 11.9886 30.9473 12.2465C30.4055 12.7622 29.6271 13.5044 28.6804 14.411C26.7872 16.224 24.2196 18.6954 21.5228 21.3279C16.1705 26.5527 10.1881 32.5291 8.06237 35.1862C3.82848 40.4786 0.494694 47.035 0.542188 54.629L0.542347 54.6544L0.543335 54.6798C0.746936 59.9138 1.34625 63.9803 2.83134 67.8049C4.31638 71.6294 6.64451 75.1025 10.1433 79.2162L10.2273 79.315L10.3266 79.3986C13.9414 82.4421 17.056 84.4688 20.5685 85.789C24.0698 87.105 27.8646 87.6803 32.7758 87.9665L32.8465 87.9706L32.9172 87.9683C37.7843 87.8095 41.5397 87.2563 45.0446 85.913C48.548 84.5701 51.6929 82.4791 55.3976 79.4059L55.4516 79.3611L55.5014 79.3115C58.9867 75.8458 61.3337 72.6837 62.8404 68.8168C64.3357 64.979 64.9564 60.5649 65.1895 54.6809L65.191 54.6423L65.1906 54.6036C65.1572 51.2839 64.3522 48.2077 63.1203 45.3713C62.9517 45.3781 62.7808 45.384 62.6073 45.3892C61.5026 45.33 60.499 45.2495 59.5695 45.1372C61.0558 48.0758 62.0341 51.2161 62.0752 54.5969C61.8457 60.3393 61.2431 64.3357 59.9378 67.6858C58.6473 70.9978 56.624 73.7943 53.3546 77.0532C49.7997 79.997 46.9685 81.8394 43.9297 83.0042C40.8923 84.1684 37.5404 84.6964 32.8863 84.8525C28.1427 84.5726 24.7249 84.0234 21.6645 82.8731C18.6295 81.7323 15.8459 79.9623 12.4322 77.099C9.09578 73.1644 7.033 70.0195 5.73524 66.6773C4.42888 63.313 3.85522 59.6398 3.65711 54.5844C3.6231 47.9608 6.52931 42.0892 10.4949 37.1322C12.4714 34.6616 18.2828 28.8441 23.6989 23.557C26.3863 20.9335 28.9464 18.4694 30.835 16.6609C31.638 15.8919 32.3194 15.2416 32.8373 14.7482C33.3249 15.2381 33.9611 15.8782 34.7087 16.6324C36.5015 18.4413 38.9342 20.9059 41.4943 23.5301C42.0613 24.1112 42.6334 24.699 43.2052 25.2883C43.3461 24.0556 43.6593 22.8735 44.1049 21.7453Z" fill="#C49A6B"/>
</svg>
