<svg width="73" height="84" viewBox="0 0 73 84" fill="none" xmlns="http://www.w3.org/2000/svg">
<circle cx="38.4517" cy="63.479" r="18.6908" stroke="#C49A6B" stroke-width="2.07675"/>
<path fill-rule="evenodd" clip-rule="evenodd" d="M57.8183 59.6951C65.2198 57.5945 70.6413 50.7861 70.6413 42.7115C70.6413 32.9623 62.7381 25.0591 52.9889 25.0591C43.2398 25.0591 35.3365 32.9623 35.3365 42.7115C35.3365 43.1404 35.3519 43.5659 35.3819 43.9872C34.6862 44.0959 34.0025 44.241 33.3328 44.4204C33.2845 43.8572 33.2598 43.2872 33.2598 42.7115C33.2598 31.8153 42.0928 22.9823 52.9889 22.9823C63.8851 22.9823 72.7181 31.8153 72.7181 42.7115C72.7181 51.8371 66.5223 59.5157 58.1078 61.77C58.0475 61.0672 57.9504 60.3749 57.8183 59.6951Z" fill="#C49A6B"/>
<path fill-rule="evenodd" clip-rule="evenodd" d="M33.9736 37.4337C33.3973 37.4905 32.8127 37.5196 32.2214 37.5196C22.4723 37.5196 14.569 29.6163 14.569 19.8672C14.569 10.118 22.4723 2.21475 32.2214 2.21475C41.9706 2.21475 49.8738 10.118 49.8738 19.8672C49.8738 21.0354 49.7603 22.1772 49.5438 23.2821C50.2501 23.1577 50.9693 23.0709 51.6994 23.0238C51.8647 21.9959 51.9506 20.9416 51.9506 19.8672C51.9506 8.97104 43.1175 0.138 32.2214 0.138C21.3253 0.138 12.4923 8.97104 12.4923 19.8672C12.4923 30.7633 21.3253 39.5963 32.2214 39.5963C32.6547 39.5963 33.0847 39.5823 33.511 39.5548C33.6269 38.834 33.7819 38.1262 33.9736 37.4337Z" fill="#C49A6B"/>
<mask id="path-4-inside-1" fill="white">
<path d="M58.1808 63.479C58.1808 74.3751 49.3478 83.2081 38.4517 83.2081C27.5556 83.2081 18.7225 74.3751 18.7225 63.479C18.7225 52.5829 27.5556 43.7498 38.4517 43.7498C49.3478 43.7498 58.1808 52.5829 58.1808 63.479Z"/>
</mask>
<path d="M56.1041 63.479C56.1041 73.2281 48.2008 81.1314 38.4517 81.1314V85.2849C50.4948 85.2849 60.2576 75.522 60.2576 63.479h36.1041ZM38.4517 81.1314C28.7025 81.1314 20.7993 73.2281 20.7993 63.479H16.6458C16.6458 75.522 26.4086 85.2849 38.4517 85.2849V81.1314ZM20.7993 63.479C20.7993 53.7298 28.7025 45.8266 38.4517 45.8266V41.6731C26.4086 41.6731 16.6458 51.4359 16.6458 63.479H20.7993ZM38.4517 45.8266C48.2008 45.8266 56.1041 53.7298 56.1041 63.479H60.2576C60.2576 51.4359 50.4948 41.6731 38.4517 41.6731V45.8266Z" fill="#C49A6B" mask="url(#path-4-inside-1)"/>
<path fill-rule="evenodd" clip-rule="evenodd" d="M57.8183 59.6951C65.2198 57.5945 70.6413 50.7861 70.6413 42.7115C70.6413 32.9623 62.7381 25.0591 52.9889 25.0591C43.2398 25.0591 35.3365 32.9623 35.3365 42.7115C35.3365 43.1404 35.3519 43.5659 35.3819 43.9872C34.6862 44.0959 34.0025 44.241 33.3328 44.4204C33.2845 43.8572 33.2598 43.2872 33.2598 42.7115C33.2598 31.8153 42.0928 22.9823 52.9889 22.9823C63.8851 22.9823 72.7181 31.8153 72.7181 42.7115C72.7181 51.8371 66.5223 59.5157 58.1078 61.77C58.0475 61.0672 57.9504 60.3749 57.8183 59.6951Z" fill="#C49A6B"/>
<path d="M33.9736 37.4337C33.3973 37.4905 32.8127 37.5195 32.2214 37.5195C22.4723 37.5195 14.569 29.6163 14.569 19.8672C14.569 10.118 22.4723 2.21475 32.2214 2.21475C41.9706 2.21475 49.8738 10.118 49.8738 19.8672C49.8738 21.0354 49.7603 22.1772 49.5438 23.2821C50.2501 23.1577 50.9693 23.0709 51.6994 23.0238C51.8647 21.9959 51.9506 20.9416 51.9506 19.8672C51.9506 8.97104 43.1175 0.138 32.2214 0.138C21.3253 0.138 12.4923 8.97104 12.4923 19.8672C12.4923 30.7633 21.3253 39.5963 32.2214 39.5963C32.6547 39.5963 33.0847 39.5823 33.511 39.5548C33.6269 38.834 33.7819 38.1262 33.9736 37.4337Z" fill="#C49A6B"/>
<path d="M18.7509 62.4122C9.47168 61.8888 2.10849 54.1984 2.10849 44.7882C2.10849 36.9644 7.19838 30.3294 14.2475 28.0139C13.962 27.3851 13.7086 26.7387 13.4893 26.0768C5.66776 28.6972 0.0317383 36.0846 0.0317383 44.7882C0.0317383 55.3447 8.32263 63.9646 18.7481 64.4918C18.7311 64.1564 18.7225 63.8187 18.7225 63.479C18.7225 63.1211 18.732 62.7654 18.7509 62.4122Z" fill="#C49A6B"/>
<circle cx="33.2598" cy="18.8288" r="4.15351" fill="#C49A6B"/>
<circle cx="54.0273" cy="41.673" r="4.15351" fill="#C49A6B"/>
<path d="M43.6436 62.4406C43.6436 64.7345 41.784 66.5941 39.4901 66.5941C37.1961 66.5941 35.3365 64.7345 35.3365 62.4406C35.3365 60.1467 37.1961 58.2871 39.4901 58.2871C41.784 58.2871 43.6436 60.1467 43.6436 62.4406Z" fill="#C49A6B"/>
<circle cx="18.7225" cy="45.8265" r="4.15351" fill="#C49A6B"/>
</svg>
